<svg xmlns="http://www.w3.org/2000/svg" xmlns:xlink="http://www.w3.org/1999/xlink" width="500" zoomAndPan="magnify" viewBox="0 0 375 374.999991" height="500" preserveAspectRatio="xMidYMid meet" version="1.0"><defs><g/><clipPath id="39fab9b979"><path d="M 56.488281 151.464844 L 258.988281 151.464844 L 258.988281 223.464844 L 56.488281 223.464844 Z M 56.488281 151.464844 " clip-rule="nonzero"/></clipPath><clipPath id="78c2281da3"><path d="M 63.558594 158.238281 L 163.308594 158.238281 L 163.308594 216.738281 L 63.558594 216.738281 Z M 63.558594 158.238281 " clip-rule="nonzero"/></clipPath><clipPath id="037b82e5a5"><path d="M 168.640625 155.894531 L 253.390625 155.894531 L 253.390625 219.644531 L 168.640625 219.644531 Z M 168.640625 155.894531 " clip-rule="nonzero"/></clipPath></defs><g clip-path="url(#39fab9b979)"><path stroke-linecap="butt" transform="matrix(0.750869, 0, 0, 0.749268, 56.489269, 151.466241)" fill="none" stroke-linejoin="miter" d="M -0.0013152 -0.00186516 L 269.686202 -0.00186516 L 269.686202 96.091889 L -0.0013152 96.091889 L -0.0013152 -0.00186516 " stroke="#000000" stroke-width="6" stroke-opacity="1" stroke-miterlimit="4"/></g><g clip-path="url(#78c2281da3)"><path fill="#000000" d="M 63.558594 158.238281 L 163.308594 158.238281 L 163.308594 216.738281 L 63.558594 216.738281 L 63.558594 158.238281 " fill-opacity="1" fill-rule="nonzero"/></g><g clip-path="url(#037b82e5a5)"><path fill="#000000" d="M 211.015625 155.894531 L 203.953125 219.644531 L 211.015625 219.644531 L 218.078125 155.894531 Z M 188.796875 167.558594 L 168.644531 187.769531 L 188.796875 207.984375 L 193.789062 202.976562 L 178.628906 187.769531 L 193.789062 172.566406 Z M 233.234375 167.558594 L 228.242188 172.566406 L 243.402344 187.769531 L 228.242188 202.976562 L 233.234375 207.984375 L 253.386719 187.769531 Z M 233.234375 167.558594 " fill-opacity="1" fill-rule="nonzero"/></g><g fill="#ffffff" fill-opacity="1"><g transform="translate(92.786445, 197.368259)"><g><path d="M 1.234375 0 L 4.042969 0 C 8.566406 0 10.671875 -2.585938 10.671875 -6.488281 L 10.671875 -19.660156 L 8.203125 -19.660156 L 8.203125 -6.628906 C 8.203125 -4.015625 7.191406 -2.359375 4.042969 -2.359375 L 1.234375 -2.359375 Z M 1.234375 0 "/></g></g></g><g fill="#ffffff" fill-opacity="1"><g transform="translate(108.39872, 197.368259)"><g><path d="M 2.863281 0 L 5.335938 0 L 5.335938 -15.054688 L 11.851562 -5.222656 L 13.875 -5.222656 L 20.390625 -15.027344 L 20.390625 0 L 22.863281 0 L 22.863281 -19.660156 L 20.558594 -19.660156 L 12.890625 -8.003906 L 5.167969 -19.660156 L 2.863281 -19.660156 Z M 2.863281 0 "/></g></g></g></svg>