<svg xmlns="http://www.w3.org/2000/svg" xmlns:xlink="http://www.w3.org/1999/xlink" width="500" zoomAndPan="magnify" viewBox="0 0 375 374.999991" height="500" preserveAspectRatio="xMidYMid meet" version="1.0"><defs><g/><clipPath id="7badad93f9"><path d="M 0.00390625 79.667969 L 374.996094 79.667969 L 374.996094 270.917969 L 0.00390625 270.917969 Z M 0.00390625 79.667969 " clip-rule="nonzero"/></clipPath><clipPath id="039c5977dd"><path d="M 24.574219 121.589844 L 163.324219 121.589844 L 163.324219 216.839844 L 24.574219 216.839844 Z M 24.574219 121.589844 " clip-rule="nonzero"/></clipPath><clipPath id="6fb8c400e5"><path d="M 205.933594 121.589844 L 337.183594 121.589844 L 337.183594 220.589844 L 205.933594 220.589844 Z M 205.933594 121.589844 " clip-rule="nonzero"/></clipPath></defs><rect x="-37.5" width="450" fill="#ffffff" y="-37.499999" height="449.999989" fill-opacity="1"/><rect x="-37.5" width="450" fill="#ffffff" y="-37.499999" height="449.999989" fill-opacity="1"/><rect x="-37.5" width="450" fill="#ffffff" y="-37.499999" height="449.999989" fill-opacity="1"/><g clip-path="url(#7badad93f9)"><path stroke-linecap="butt" transform="matrix(0.75, 0, 0, 0.749678, 0.00204641, 79.668847)" fill="none" stroke-linejoin="miter" d="M 0.00247978 -0.00117119 L 499.992064 -0.00117119 L 499.992064 255.108212 L 0.00247978 255.108212 L 0.00247978 -0.00117119 " stroke="#000000" stroke-width="6" stroke-opacity="1" stroke-miterlimit="4"/></g><g clip-path="url(#039c5977dd)"><path fill="#000000" d="M 24.578125 121.589844 L 163.324219 121.589844 L 163.324219 216.839844 L 24.578125 216.839844 L 24.578125 121.589844 " fill-opacity="1" fill-rule="nonzero"/></g><g clip-path="url(#6fb8c400e5)"><path fill="#000000" d="M 271.558594 121.59375 L 260.621094 220.585938 L 271.558594 220.585938 L 282.496094 121.59375 Z M 237.144531 139.703125 L 205.933594 171.089844 L 237.144531 202.476562 L 244.878906 194.699219 L 221.398438 171.089844 L 244.878906 147.480469 Z M 305.972656 139.703125 L 298.242188 147.480469 L 321.71875 171.089844 L 298.242188 194.699219 L 305.972656 202.476562 L 337.183594 171.089844 Z M 305.972656 139.703125 " fill-opacity="1" fill-rule="nonzero"/></g><g fill="#ffffff" fill-opacity="1"><g transform="translate(65.221056, 184.485975)"><g><path d="M 1.71875 0 L 5.625 0 C 11.914062 0 14.84375 -3.59375 14.84375 -9.023438 L 14.84375 -27.34375 L 11.40625 -27.34375 L 11.40625 -9.21875 C 11.40625 -5.585938 10 -3.28125 5.625 -3.28125 L 1.71875 -3.28125 Z M 1.71875 0 "/></g></g></g><g fill="#ffffff" fill-opacity="1"><g transform="translate(86.932176, 184.485975)"><g><path d="M 3.984375 0 L 7.421875 0 L 7.421875 -20.9375 L 16.484375 -7.265625 L 19.296875 -7.265625 L 28.355469 -20.898438 L 28.355469 0 L 31.792969 0 L 31.792969 -27.34375 L 28.589844 -27.34375 L 17.929688 -11.132812 L 7.1875 -27.34375 L 3.984375 -27.34375 Z M 3.984375 0 "/></g></g></g></svg>